<svg xmlns="http://www.w3.org/2000/svg" xmlns:xlink="http://www.w3.org/1999/xlink" width="34" height="34" viewBox="0 0 34 34">
    <defs>
        <path id="a" d="M0 .028h33.755V33.8H0z"/>
    </defs>
    <g fill="none" fill-rule="evenodd">
        <g transform="translate(0 .042)">
            <mask id="b" fill="#fff">
                <use xlink:href="#a"/>
            </mask>
            <path fill="#FE621D" d="M27.462 27.5a14.875 14.875 0 0 1-10.585 4.384c-2.673 0-5.297-.714-7.58-2.058a.987.987 0 0 0-.482-.134.994.994 0 0 0-.587.198c-2.163 1.676-4.341 1.923-5.296 1.944 1.139-.848 2.093-2.163 2.892-3.995a.961.961 0 0 0-.162-1.018C.429 20.91.705 11.901 6.29 6.315A14.875 14.875 0 0 1 16.877 1.93c3.995 0 7.757 1.556 10.585 4.385 5.84 5.847 5.84 15.351 0 21.185m1.35-22.522A16.769 16.769 0 0 0 16.878.028c-4.512 0-8.748 1.761-11.937 4.95C-1.212 11.13-1.657 20.96 3.823 27.62c-.757 1.549-1.648 2.581-2.659 3.076a1.58 1.58 0 0 0-.862 1.648c.106.685.629 1.216 1.315 1.322.375.057.778.092 1.195.092 2.072 0 4.25-.714 6.067-1.966a16.898 16.898 0 0 0 7.998 2.008c4.51 0 8.747-1.753 11.936-4.943a16.774 16.774 0 0 0 4.942-11.936 16.79 16.79 0 0 0-4.942-11.943" mask="url(#b)"/>
        </g>
        <path fill="#FE621D" d="M23.948 11.385H9.805a.95.95 0 0 0-.954.954c0 .53.424.955.954.955h14.143a.955.955 0 0 0 0-1.91M23.948 16.002H9.805a.95.95 0 0 0-.954.955c0 .53.424.954.954.954h14.143a.955.955 0 0 0 0-1.91M23.948 20.62H9.805a.95.95 0 0 0-.954.954c0 .53.424.955.954.955h14.143a.955.955 0 0 0 0-1.91"/>
    </g>
</svg>
