<svg xmlns="http://www.w3.org/2000/svg" xmlns:xlink="http://www.w3.org/1999/xlink" width="37" height="34" viewBox="0 0 37 34">
    <defs>
        <path id="a" d="M0 .015h36.522v17.502H0z"/>
    </defs>
    <g fill="none" fill-rule="evenodd">
        <g transform="translate(0 16.33)">
            <mask id="b" fill="#fff">
                <use xlink:href="#a"/>
            </mask>
            <path fill="#FE621D" d="M35.475.17c-.58 0-1.046.466-1.046 1.047v9.518a4.696 4.696 0 0 1-4.69 4.69H6.783a4.695 4.695 0 0 1-4.69-4.69V1.062C2.093.48 1.629.015 1.047.015.466.015 0 .481 0 1.062v9.673a6.79 6.79 0 0 0 6.782 6.782H29.74a6.79 6.79 0 0 0 6.782-6.782V1.217c0-.574-.465-1.046-1.047-1.046" mask="url(#b)"/>
        </g>
        <path fill="#FE621D" d="M17.525 25.539c.201.201.472.31.736.31.263 0 .535-.1.736-.31l6.65-6.65c.411-.411.411-1.07 0-1.48-.41-.411-1.07-.411-1.48 0l-4.86 4.867V1.046c0-.58-.465-1.046-1.046-1.046s-1.046.465-1.046 1.046v21.23l-4.868-4.868c-.41-.41-1.07-.41-1.48 0-.411.411-.411 1.07 0 1.48l6.658 6.65z"/>
    </g>
</svg>
