<svg xmlns="http://www.w3.org/2000/svg" xmlns:xlink="http://www.w3.org/1999/xlink" width="36" height="35" viewBox="0 0 36 35">
    <defs>
        <path id="a" d="M0 0h35.317v35H0z"/>
    </defs>
    <g fill="none" fill-rule="evenodd">
        <mask id="b" fill="#fff">
            <use xlink:href="#a"/>
        </mask>
        <path fill="#FE621D" d="M27.773 32.876V19.979c3.115.492 5.511 3.198 5.511 6.449a6.545 6.545 0 0 1-5.51 6.448M7.543 19.57v12.897c-3.114-.492-5.51-3.198-5.51-6.449a6.551 6.551 0 0 1 5.51-6.448m27.774-1.912c0-4.717-1.837-9.155-5.171-12.488A17.548 17.548 0 0 0 17.659 0 17.548 17.548 0 0 0 5.17 5.17 17.548 17.548 0 0 0 0 17.66v8.36c0 4.725 3.848 8.573 8.572 8.573.567 0 1.02-.454 1.02-1.02V18.474c0-.567-.453-1.02-1.02-1.02a8.544 8.544 0 0 0-6.53 3.023v-2.82c0-8.61 7.007-15.617 15.617-15.617 8.61 0 15.617 7.008 15.617 15.618 0 .068.008.136.023.204a.934.934 0 0 0-.023.204v2.82a8.544 8.544 0 0 0-6.53-3.024c-.568 0-1.021.453-1.021 1.02V33.98c0 .566.453 1.02 1.02 1.02 4.725 0 8.573-3.848 8.573-8.572v-8.361a.944.944 0 0 0-.023-.204.942.942 0 0 0 .023-.204" mask="url(#b)"/>
    </g>
</svg>
