<svg xmlns="http://www.w3.org/2000/svg" xmlns:xlink="http://www.w3.org/1999/xlink" width="35" height="35" viewBox="0 0 35 35">
    <defs>
        <path id="a" d="M0 0h34.95v34.946H0z"/>
    </defs>
    <g fill="none" fill-rule="evenodd">
        <mask id="b" fill="#fff">
            <use xlink:href="#a"/>
        </mask>
        <path fill="#FE621D" d="M31.636 11.347l-8.035-8.035a5.688 5.688 0 0 1 3.634-1.303 5.69 5.69 0 0 1 4.036 1.668 5.647 5.647 0 0 1 1.669 4.036 5.673 5.673 0 0 1-1.304 3.634zm-19.652 19.69L8.7 27.751 26.952 9.5l3.284 3.284-18.252 18.252zm10.18-26.318l3.358 3.359L7.27 26.33l-3.358-3.358L22.164 4.719zm10.522-2.457a7.708 7.708 0 0 0-10.91 0L1.776 22.257a1 1 0 0 0-.283.573L.01 33.807a.997.997 0 0 0 .283.841c.186.186.447.298.707.298.045 0 .09 0 .134-.007l6.613-.894a1.007 1.007 0 1 0-.268-1.996l-5.302.715 1.035-7.655 8.057 8.057a.986.986 0 0 0 1.415 0l20.002-19.994a7.667 7.667 0 0 0 2.264-5.459 7.637 7.637 0 0 0-2.264-5.451z" mask="url(#b)"/>
    </g>
</svg>
